<?xml version="1.0" encoding="UTF-8"?>
<svg width="304px" height="311px" viewBox="0 0 304 311" version="1.1" xmlns="http://www.w3.org/2000/svg" xmlns:xlink="http://www.w3.org/1999/xlink">
    <title>logo</title>
    <g id="Page-1" stroke="none" stroke-width="1" fill="none" fill-rule="evenodd">
        <g id="logo" transform="translate(-0.000000, 0.000000)" fill-rule="nonzero">
            <path d="M34.2,84.5 L56.6,84.5 L57,84.9 L57,87 L56.8,105.8 L57.2,105.8 C59.6,105.8 61.4,106.5 62.4,107.9 L62.4,108.1 L62.2,108.3 L62.2,108.5 L59.3,107.5 C60,108.2 60.6,108.5 61.2,108.5 L61.2,108.9 C58.3,109.7 56.8,111.6 56.8,114.3 L56.8,120.2 C57.2,120.2 57.4,120.4 57.4,120.8 C58.3,120.8 59,121.4 59.5,122.5 L59.3,122.7 L59.3,122.9 C60,123.2 60.3,123.9 60.3,125 L60.1,125.2 C60.5,125.2 60.7,125.3 60.7,125.6 L60.7,125.8 L60.5,126 L61.1,127.9 L60.9,128.5 L61.3,128.5 L61.3,129.1 L61.1,129.3 L61.5,131 L61.9,131 L62.7,130.4 L63.3,131.2 L62.7,131.2 L62.5,131 L62.3,131 L61.7,131.8 L62.1,131.8 L62.1,132 L61.1,133.3 L61.7,133.3 L61.7,133.5 L61.5,133.7 L61.5,133.9 L61.7,133.9 L62.7,132.9 L62.7,131.9 L63.1,131.9 L64.1,132.9 L64.1,134.6 C64.1,136.3 63.6,137.1 62.6,137.1 L60.3,137.1 L60.1,137.3 L59.9,137.1 L59.7,137.1 L59.5,137.3 L59.3,137.1 L58.7,137.1 L58.7,138.3 L59.1,138.7 L59.3,138.5 L59.1,138.3 L59.1,137.5 L59.5,137.5 C59.7,138.7 60.1,139.3 60.8,139.3 C60.7,140.5 60.3,141.3 59.8,141.8 C59.8,142.5 59.7,142.8 59.4,142.8 L59.6,143 L59.6,143.2 L58.6,144 L58.4,143.8 L58.2,143.8 L58.2,144 L58.4,144.2 L58.4,144.4 L58.2,144.6 L58,144.6 L57.8,144.4 L57.8,142.1 L57.4,142.1 L57.6,141.9 L57.6,139.4 L57.2,136.9 L56.2,136.9 L56,138.9 L56,139.1 L55.6,139.1 L55.6,138.3 L55.8,138.1 L55.6,137.5 L55.4,137.5 L54.8,142.7 L55,142.5 L55.2,142.5 L55.2,142.9 C54.8,142.9 54.6,143.6 54.6,145 L54.6,146.7 L53.8,149.2 L53.8,149.4 C54.1,149.4 54.5,149.6 54.8,150 L55,150 L55,149.6 L55.4,149.6 L55.4,149.8 L55.2,150.4 L55.6,152.7 L55.8,152.5 L56.4,152.5 C56.4,152.8 56.2,152.9 55.8,152.9 L55.8,153.3 L55.4,156.4 L55.2,156.2 L55,156.2 C54.4,157.4 54.1,159.2 54,161.4 L54.2,161.6 L54.2,161.8 L54,162.6 L54,162.8 L54.4,162.8 L54.4,163.2 L54,163.2 L54,163.4 L54.4,163.4 L54.6,163.2 L54.6,163.8 L54,163.8 L53.8,163.6 L53.6,163.6 L53.6,167.4 L53.4,167.6 L53.6,167.8 L53.6,168.6 L53.2,168.6 L53.2,166.7 L53,165.9 L53.2,165.1 L52.8,165.1 L52.8,163.2 L53.2,163.2 L53.2,161.9 L53,161.9 C53,162.5 52.8,162.9 52.4,163.2 L52.6,163.4 L52.6,163.6 L52.4,163.8 L52.6,164 L52,166.1 L52.2,166.7 L51.8,168.2 L51.6,168 L51.2,168 L51.2,168.4 L51,168.4 L51,168.2 L51.4,166.7 L50.8,166.5 L50.8,166.1 L51.4,166.1 L51.2,165.3 C50.8,165.3 50.4,166.3 49.9,168.2 L50.1,168.4 L49.9,170.3 L49.7,170.3 L49.3,169 L49,169 L48.4,169.4 L48.2,169.2 L48.2,166.9 L47.8,167.3 L47.8,168.3 L48,169.1 L47.8,169.9 L48,170.1 L48,170.3 L47.8,170.5 L47.6,170.5 L48,172 L47.6,172.8 L47.8,173 L47.8,173.8 L47.4,174.2 C47.4,171.2 47.1,169 46.4,167.7 L46.6,167.1 L46.4,165.8 L46.4,165.4 C46.1,165.4 46,165.2 46,164.8 L45.4,164.8 C45.4,165.5 45.1,165.8 44.6,165.8 L44.6,166 L45.2,166 L45.8,165.8 L45.4,166.6 L44,166.6 L44,166.4 L44.2,166.2 L43.6,164.5 L44,164.5 L43.8,163.5 L44,162.7 L43.8,162.5 L43.8,162.3 L44,161.5 L43.6,156.1 L43.8,156.1 L43.4,154.8 L43.6,154 L43.6,153.6 C43.2,153.6 42.9,152.6 42.8,150.5 L43,150.5 L43.2,150.7 L43.4,150.7 L43.6,150.5 L43.6,150.1 L43.4,148 L43.6,147.8 L43.8,147.8 L44.2,148.2 L44.6,147.8 L44.6,146.3 C44.4,144.5 44,143.6 43.6,143.6 L43.4,143.6 L43.2,143.8 C42.6,142.8 42.2,140.9 41.7,138.2 L41.5,138.2 L41.5,139.5 L42.1,142.2 L41.9,142.4 L41.7,142.4 L41.3,142 L41.3,141.4 L41.1,139.3 L40.9,139.3 C40.9,140.3 40.8,140.8 40.5,140.8 L40.3,140.8 L40.3,140.4 L40.7,140 L40.5,139 C39.9,139.1 39.7,139.6 39.7,140.3 L39,140.3 L39,139 C38.7,139 38.6,139.4 38.6,140.3 L38.2,140.3 L38,139 L38.4,138.6 L38.4,137.2 L36.5,137.2 C35.4,137.2 34.8,136.6 34.8,135.5 L34.8,133.6 C34.8,132.5 35.4,131.9 36.7,131.9 L37.3,131.9 L37.3,131.5 L38.3,131.7 L38.5,131.7 C38.5,131.1 38.8,130.9 39.3,130.9 L39.3,130.5 L39.1,130.3 L39.7,126.3 C39.7,125.9 39.4,125.7 38.9,125.7 L38.7,124.9 L39.5,123.2 L39.9,122.8 L40.1,123 L40.3,123 C41,122.8 41.3,122.5 41.3,122.2 L41.5,122.4 L41.9,122.4 L41.9,120.7 L41.5,120.1 L41.9,120.1 L41.9,114.7 C41.9,111.5 40.1,109.4 36.5,108.6 L36.5,107.8 C37.7,106.5 39.3,105.9 41.3,105.9 L41.9,106.1 L41.9,94.8 C41.9,91.7 40.7,90.2 38.3,90.2 C34.8,90.2 33.1,89.6 33.1,88.3 L33.1,86.6 C33.5,85.2 33.8,84.5 34.2,84.5 Z" id="Path" fill="#FFFFFF"></path>
            <path d="M44,51.9 L44.4,51.9 C44.7,54.1 45.1,55.2 45.7,55.2 C46,54.2 46.3,53.7 46.5,53.7 L46.7,53.7 C46.7,54.3 47,54.7 47.5,55 C48.9,55 50.3,54.4 51.7,53.1 C51.7,53.4 52.7,53.9 54.8,54.4 L54.6,54.6 L54.6,54.8 L55.2,56.7 L54.8,56.7 L54.8,56.9 L55.2,56.9 L58.3,53.6 L58.5,53.6 L56.8,55.5 L56.8,55.7 L58.3,55.5 L58.7,55.5 C58.2,56.1 56.9,56.9 54.5,57.8 L54.7,58 L54.7,58.2 L54.1,58.8 C54.1,58.5 53.9,58.4 53.5,58.4 C53.1,58.4 52.7,58.8 52.2,59.7 C56,62.2 57.9,64.4 57.9,66.2 L58.1,68.5 C58.1,69.8 57.6,71.2 56.6,72.7 L57.2,73.3 L58.2,73.1 L58.4,73.3 L58.4,73.5 C58.1,74.3 57.8,74.8 57.6,74.8 C57.6,74.4 57.4,74.2 57,74.2 L56.2,74.4 L56,73.6 C54,75.4 52.4,76.3 51.2,76.3 L51.2,76.5 L51.4,76.7 L51.4,76.9 C51.2,76.9 51,77.2 50.8,77.7 C50.8,78 51.2,78.5 52.1,79.2 L52.1,79.4 L51.7,79.8 L51.5,79.8 L51.5,79.2 L51.1,79.2 L51.5,80.5 C51.4,81.3 51.2,81.8 50.9,81.8 L50.5,81.8 C49.4,81.8 48.5,80.8 47.8,78.7 L48.2,77.4 C48.2,76.8 47.6,76.6 46.3,76.6 C44.2,76.1 42.4,74.8 40.6,72.6 L40.2,72.6 L40.4,73.9 C40.2,74.8 39.6,75.6 38.7,76.2 L38.3,75.8 C38.9,75.1 39.1,74.5 39.1,74.1 L38.9,74.3 L38.7,74.3 L38.7,74.1 C38.8,73.3 39,72.8 39.3,72.8 L39.3,73.2 L39.5,73.2 L39.5,73 L39.3,72.2 L39.9,71.2 C39.6,69.4 39.2,68.5 38.6,68.5 L37.3,66.8 L36.9,66.8 C36.2,66.8 35.5,67 34.8,67.4 L34.8,67 L35.8,65.7 L35.2,65.3 C35.3,64.8 36.1,63.9 37.7,62.6 L37.3,62.6 L37.3,62.4 C37.5,61.8 37.9,61.6 38.3,61.6 L38.1,61.4 L38.1,61 L38.5,61 L38.5,60.8 L37.7,60.8 L37.7,61.2 L36.9,61.2 L36.9,61 C36.9,60.8 37.5,60.4 38.8,60 L38.2,59.2 L39,59 L39,58.6 C39,57.9 37.7,56.3 35,53.8 L35,53.4 C36.7,54.8 37.5,55.7 37.5,56.1 L37.9,56.1 L37.9,55.2 L38.5,55.2 L39.3,55.8 L39.5,55.8 L39.5,55.4 L39.7,55.4 L40.1,55.8 C40.1,56.1 40.4,56.2 41.1,56.2 L41.3,56.4 L41.5,56.2 L41.5,55.8 L41.7,55.8 L42.3,56.2 L42.5,56.2 L42.3,55.2 L42.5,55 L42.7,55 L43.5,55.6 L43.7,55 L43.5,52.7 L43.5,51.9 L44,51.9 Z" id="Path" fill="#FFFFFF"></path>
            <polygon id="Path" fill="#FFFFFF" points="38.8 137.2 38.8 139.1 39 139.1 39.2 138 39.2 137.2"></polygon>
            <rect id="Rectangle" fill="#FFFFFF" x="39.4" y="57.5" width="1" height="1"></rect>
            <polygon id="Path" fill="#FFFFFF" points="39.4 124.7 39.4 125.3 39.8 124.9 39.8 124.7"></polygon>
            <path d="M40,137.2 L39.8,139.2 C40.1,139.1 40.4,138.8 40.6,138.2 L40.4,137.4 L40.6,137.2 L40,137.2 Z" id="Path" fill="#FFFFFF"></path>
            <polygon id="Path" fill="#FFFFFF" points="40.2 56.3 40.2 56.7 40.6 56.7"></polygon>
            <polygon id="Path" fill="#FFFFFF" points="40.4 124.7 40.6 124.9 41.3 124.7 41.1 124.1"></polygon>
            <rect id="Rectangle" fill="#FFFFFF" x="41.1" y="137.8" width="1" height="1"></rect>
            <rect id="Rectangle" fill="#FFFFFF" x="41.3" y="123" width="1" height="1"></rect>
            <rect id="Rectangle" fill="#FFFFFF" x="41.7" y="123.6" width="1" height="1"></rect>
            <polygon id="Path" fill="#FFFFFF" points="42.1 139.1 42.1 139.5 42.5 139.5"></polygon>
            <polygon id="Path" fill="#FFFFFF" points="42.3 139.7 42.7 141.8 43 141.8 43 141.2 42.7 139.7"></polygon>
            <rect id="Rectangle" fill="#FFFFFF" x="43" y="142.8" width="1" height="1"></rect>
            <rect id="Rectangle" fill="#FFFFFF" x="43.2" y="143.5" width="1" height="1"></rect>
            <rect id="Rectangle" fill="#FFFFFF" x="43.4" y="151.6" width="1" height="1"></rect>
            <rect id="Rectangle" fill="#FFFFFF" x="44.2" y="149.3" width="1" height="1"></rect>
            <rect id="Rectangle" fill="#FFFFFF" x="45.9" y="152.5" width="1" height="1"></rect>
            <rect id="Rectangle" fill="#FFFFFF" x="45.9" y="153.7" width="1" height="1"></rect>
            <polygon id="Path" fill="#FFFFFF" points="46.1 55.4 46.7 56 46.9 56 46.9 55.8 46.5 55"></polygon>
            <path d="M47.1,56.5 L47.1,56.7 L47.5,56.7 L47.5,56.9 C48.6,56.8 49.3,56.5 49.8,56.1 L50,56.1 C50.6,56.8 51.3,57.1 52.1,57.1 L54.6,56.3 C54.3,55.4 53.9,54.8 53.3,54.6 L53.1,54.8 C53.1,54.4 52.8,54.2 52.3,54.2 L52.3,54 L52.1,54.2 L51.7,54.2 L51.5,54 C48.9,55.1 47.5,55.9 47.1,56.5 Z" id="Path" fill="#FFFFFF"></path>
            <rect id="Rectangle" fill="#FFFFFF" x="47.3" y="152.5" width="1" height="1"></rect>
            <path d="M48,143.3 L48,144.1 L48.2,145.4 L48,145.6 L48.2,147.7 L48.2,150 L47.8,150 L47.8,149.4 L47.6,149.4 L47.6,149.6 L48,153.6 L48.2,153.6 L48.2,153.2 L48.4,153 L48.2,152.8 L48,152.8 C48.6,150 48.8,148 48.8,146.5 L48.8,145.9 C48.8,145.4 48.6,145 48.2,144.4 L48.4,144.4 L48.6,144.6 L48.8,144.6 L48.8,144.2 L48.4,143.4 L48,143.4 L48,143.3 Z" id="Path" fill="#FFFFFF"></path>
            <polygon id="Path" fill="#FFFFFF" points="49.2 166.3 49 168.2 49.2 169 49.4 169 49.4 166.3"></polygon>
            <polygon id="Path" fill="#FFFFFF" points="50.7 164.6 50.7 164.8 50.9 165.7 51.1 165.7 51.1 165.2 50.9 164.6"></polygon>
            <rect id="Rectangle" fill="#FFFFFF" x="50.9" y="163.1" width="1" height="1"></rect>
            <rect id="Rectangle" fill="#FFFFFF" x="50.9" y="163.8" width="1" height="1"></rect>
            <polygon id="Path" fill="#FFFFFF" points="53 57.5 54 57.5 54.5 57.1 53.4 57.1"></polygon>
            <rect id="Rectangle" fill="#FFFFFF" x="53" y="160.8" width="1" height="1"></rect>
            <rect id="Rectangle" fill="#FFFFFF" x="54.5" y="151" width="1" height="1"></rect>
            <rect id="Rectangle" fill="#FFFFFF" x="55.5" y="137.2" width="1" height="1"></rect>
            <rect id="Rectangle" fill="#FFFFFF" x="58.9" y="140.1" width="1" height="1"></rect>
            <path d="M122.1,110 L122.1,111 L124.6,111 L125.9,111.2 C126.6,111 126.9,110.8 126.9,110.6 C126.7,109.5 126.2,108.9 125.4,108.9 L122.1,110 Z" id="Path" fill="#FFFFFF"></path>
            <path d="M174,105.8 L172.5,105.8 C172.5,103.1 171.2,99.7 168.5,95.3 C165.5,90.2 160.4,86.5 153.2,84.2 L152.8,84.6 L151.8,84.4 C149.5,85.8 147.9,86.5 147.2,86.5 L146.8,86.5 C145.2,86.5 144,86.2 143.2,85.7 L144,83.6 L144,83.4 C136.6,83.4 130,86.5 124.1,92.8 C120.2,98.3 118.2,102.6 118.2,105.8 L116.7,105.8 C114.8,105.8 113.2,106.5 112.1,107.9 L112.1,108.1 C112.1,108.5 112.7,108.7 113.8,108.7 C115.3,109.1 116.5,110.1 117.4,111.6 C118.4,117.3 119.7,121.3 121.2,123.5 C127,132.8 134.9,137.5 144.8,137.5 L145.4,137.5 C154.2,137.5 161.5,134 167.6,127 C170.2,123.8 172,119 173,112.6 L170.5,114.1 L170.3,114.1 L169.3,113.9 L169.3,113.2 C170.7,111.5 171.8,110.7 172.6,110.7 L172.8,110.7 L173.4,111.1 L175.5,109.2 C177.3,108.9 178.2,108.6 178.2,108.4 L178.2,107.8 C177.3,106.5 175.8,105.8 174,105.8 Z M156.4,118 C155,127.6 151.3,132.4 145.3,132.4 L142.8,132.2 C137.5,130.2 134.7,124.5 134.2,114.8 L134.2,113.3 C134.2,112 134.9,110.8 136.3,109.7 L139.9,108.2 C139.1,106.5 137.6,105.7 135.3,105.7 L134.3,105.7 L134.7,102.8 L134.5,102.6 L131.4,105.1 L131.4,104.5 C131.4,102.1 132.6,100.7 135,100.3 C136.8,92.5 140.3,88.6 145.5,88.6 C148.4,88.6 150.9,89.8 152.8,92.2 C155.4,96.9 156.8,101.4 156.8,105.8 L156,105.8 C154.1,105.8 152.5,106.5 151.4,107.9 L151.4,108.1 L152,108.7 C154.3,108.7 155.9,110.2 157,113.1 L156.4,118 Z" id="Shape" fill="#FFFFFF"></path>
            <path d="M4.1,-5.68434189e-14 L4.3,0.2 L4.3,0.6 C3,3.7 2.4,6.9 2.4,10.4 C2.4,20.9 10.8,30.7 27.5,39.9 C43.8,47.4 61.8,51.2 81.5,51.2 L84.2,51.2 C92.6,51.2 103.8,49.8 117.9,47 L118.1,47.2 L118.1,47.6 L117.1,47.6 L117.9,48.2 L118.5,48 L119.1,48.2 L119.1,48 C119.1,46.7 120.1,46.1 122.2,46.1 L135.4,43.8 L136.7,44.4 L137.1,44 C138,44.3 138.7,44.8 139.4,45.7 L140,45.9 C141.7,45.9 142.5,45.3 142.5,44.2 L141.5,43.2 C142,42.9 143.3,42.7 145.5,42.6 L146.5,42.8 C146.5,42.3 149,42.1 154,42 L154.6,42.6 C155,42.6 155.2,42.4 155.2,42 L155.4,41.8 L155.6,41.8 C156.9,42.5 157.5,43.3 157.5,44.3 L156.9,44.9 L156.9,45.3 L157.9,45.1 C158.7,46.1 159.9,46.6 161.2,46.6 C161.2,47.4 161.7,47.9 162.7,47.9 L163.3,49.8 L163.1,50 L162.3,50 C162.1,50 161.8,49.6 161.5,48.7 L161.1,48.7 L157.3,49.1 L155.6,48.1 L154.8,48.9 L154.8,49.7 L156.5,49.7 L156.5,50.1 L154,50.1 C154,49.4 153.9,49.1 153.6,49.1 L153.2,49.1 C152.9,49.1 152.8,49.4 152.8,50.1 L151.3,50.3 L147.3,50.3 L147.3,50.2 L147.7,49.6 L147.7,49.2 L147.3,49.2 C147.1,49.2 146.9,49.7 146.7,50.7 L146.5,50.7 C144,50.7 135.7,51.3 121.4,52.6 L121,52.2 L120.8,52.2 C120.8,52.9 119.1,53.2 115.8,53.2 L115.2,53 C115.2,53.5 108.3,54.1 94.5,54.9 L92.4,54.9 L92,54.5 C91.6,54.9 90.3,55.1 88.2,55.1 C70.9,55.1 56.6,53.4 45.3,50.1 C45.3,50.4 45.1,50.5 44.7,50.5 C28.3,44.3 17.5,38.7 12.3,33.8 C4.1,26.9 0,19.7 0,12.2 L0,9.7 C0.5,3.2 1.9,-5.68434189e-14 4.1,-5.68434189e-14 Z" id="Path" fill="#FFFFFF"></path>
            <path d="M162.1,41.7 L165,41.7 L165.6,42.1 L166,41.7 C166.3,42.1 167.7,42.5 170,43 C170.6,43.3 170.8,44 170.8,45.1 L174.1,44.7 L175.1,44.9 L174.9,44.7 L174.9,44.2 L175.5,43.6 L175.7,43.6 C176.5,43.6 177.2,44.1 178,45.1 C177.4,45.3 177,45.6 176.7,46.1 L176.7,46.5 L177.5,46.5 C177.8,46.4 178.1,46.1 178.3,45.5 C181.1,45.7 182.5,46.2 182.5,46.8 L182.5,47 L181.9,48.3 C182.7,48.4 183.4,48.8 184,49.3 L184.2,49.3 C185.6,49.2 186.3,48.8 186.3,48.3 L185.7,47.7 L186.1,47.3 L186.7,47.3 L186.7,48.3 L187.1,48.3 L187.7,47.9 L188.1,47.9 L190.2,50.2 L189.8,50.8 L189.8,51 L190.2,51 C190.5,51 190.6,50.8 190.6,50.4 L192.5,50.8 L192.3,50.6 L192.3,50.2 L193.8,49.8 L193.8,50.4 L194.6,49.4 L193.6,49.2 L193.6,48.8 L194.2,47.8 C194.1,47.3 193.6,46.7 192.7,45.9 L192.9,45.7 L193.1,45.7 C195.6,46.8 197.2,47.8 197.9,48.6 L198.1,48.6 C198.8,48.6 199.3,48.4 199.4,48 L199.6,48.2 L200.4,48.2 L200.6,47.4 L200.4,46.8 L200.6,46.6 C202.7,47.2 203.8,47.8 203.9,48.3 L204.9,48.1 C205.9,48.1 206.7,48.6 207.2,49.6 L208.9,49.4 C210.5,50.4 211.8,50.9 212.7,50.9 C218.7,53.5 224.3,56.9 229.7,61.2 C234.7,66.1 237.8,70 238.9,72.7 C241.7,77.8 243.1,83.4 243.1,89.4 C243.1,96.9 240.6,103.1 235.6,108 C235.6,108.8 235,109.3 233.7,109.3 C231.2,111 229.9,112.5 229.9,113.9 L229.9,128.3 C229.9,131 231.2,132.3 233.7,132.3 L235.8,132.3 C236.8,132.3 237.3,132.8 237.3,133.8 L237.3,136.3 C237.3,137 237.1,137.5 236.7,137.6 L218.7,137.6 L218.1,137.2 L217.5,137.2 L215.8,137.6 L209,137.6 C208.4,137.4 208.2,136.9 208.2,136.1 L208.2,134.2 C208.2,133.1 208.5,132.5 209,132.3 L211.3,132.3 C214.1,132.3 215.5,131.2 215.5,129 L215.5,112.9 C215.5,111.4 213.7,110 210.1,108.7 C211,107.2 212.4,106.4 214.1,106.4 L215.6,106.4 L215.6,101 C215.6,96.1 213.2,93.7 208.3,93.7 L207.7,93.7 C202.5,93.7 199.2,96.6 197.7,102.5 C197.3,103.6 197.1,104.9 197.1,106.5 L197.3,106.3 L197.5,106.3 C199.7,106.3 201.3,107.1 202.5,108.6 C202.5,108.8 201.4,109.4 199.2,110.3 C197.7,111.5 196.9,112.7 196.9,114.1 L196.9,117.9 L196.7,129 C196.7,131.2 197.7,132.3 199.8,132.3 C202.7,132.3 204.2,132.6 204.2,133.3 L204.2,137.1 L203.6,137.7 L175.6,137.7 C175,137.5 174.8,137 174.8,136.2 L174.8,133.9 C174.8,132.9 175.3,132.4 176.3,132.4 L178.6,132.4 C181,132.4 182.2,131.3 182.2,129.1 L182.2,119.3 C182.2,119 182.7,118.8 183.7,118.7 L183.9,118.1 L182.2,117.1 L182.2,114.2 C182.2,111.9 180.3,110.2 176.5,109 L176.5,108.6 C177.9,107.2 179.5,106.5 181.3,106.5 L182.1,106.7 L182.1,95.2 L181.7,92.7 L181.9,92.5 L182.1,92.7 L182.3,92.7 C183.4,92.7 184,92.4 184.2,91.9 L184.2,91.7 C184.2,91.3 183.1,91 180.9,90.9 L180.5,91.3 C179.8,90.9 178.8,90.7 177.4,90.7 L176.8,90.7 L176.8,89.4 L177,89.4 L177.2,89.6 L177.4,89.6 L178.9,89 L181.4,89.2 L187.3,89 C187.9,89 189,89.6 190.9,90.9 C191.9,90.9 192.7,90.1 193.4,88.4 C193.4,86.9 192.4,86 190.3,85.7 L190.3,85.3 L196.6,85.3 L197,85.7 L197,96.8 C200.5,90.2 204.3,86.5 208.3,85.5 C210,84.9 211.9,84.7 213.9,84.7 L214.9,84.7 C225.5,84.7 230.8,91.5 230.8,105.2 L230.8,106.7 L232.3,106.7 C236.6,102.8 238.8,98 238.8,92.3 L238.8,90.6 C238.8,84.6 236.9,79 233.2,73.9 L233.4,73.7 L233.4,73.5 L226.5,66.8 L227.1,66.2 L227.7,66.4 L227.7,66.2 C227.7,65.9 227.9,65.8 228.3,65.8 L228.5,65.6 L228.5,65.4 L228.1,65 L227.3,65.8 L226.5,65.8 L225.9,65.4 L225.7,65.4 L225.1,65.8 L224.9,65.8 C221.1,63.3 217.3,61.1 213.4,59.3 L213.8,57.8 L213.2,57.4 C212.9,57.4 212.5,57.9 211.9,58.9 C211.2,58.2 209.8,57.7 207.7,57.4 L197.7,54.3 L197.7,53.9 L196,53.9 L195.8,53.7 L195.6,53.7 L196.2,52 L195.4,51.8 C195.4,52.2 195.3,52.4 195,52.4 L194.2,52.4 L192.5,52 C192.2,52 191.9,52.4 191.7,53.3 L191.3,53.3 L190.5,52.7 L190.3,52.9 L189.7,52.9 L189.7,50.8 L189.5,49.8 L189.3,49.8 L187,50.2 L187.2,50.4 L187.2,50.6 L187,50.8 L186.8,50.8 L184.3,50.4 L183.5,50.4 L183.5,50.6 L183.7,50.8 L183.7,51 L183.5,51.2 C182,51.1 181.2,50.9 181.2,50.6 L180.6,50.8 L171,50.2 L170.4,49.4 L170.4,48.6 L170.8,48.6 C171.8,49.4 172.6,49.9 173.1,49.9 L173.7,49.7 L173.7,49.5 C173.7,48.6 173.1,47.5 172,46.2 C171.4,47 170.9,47.5 170.5,47.5 L169.5,46.9 L168.2,46.9 C167.5,47.5 166.8,47.7 166.1,47.7 C164,47.6 163,47.3 163,46.9 L163,46.7 L163.4,45.4 L163.2,45.2 L163,45.2 L162.8,45.4 L162.6,45.2 L162.6,45 L162.8,44.8 C162,44.3 161.5,43.6 161.5,42.7 L162.1,41.7 Z" id="Path" fill="#FFFFFF"></path>
            <path d="M174.8,84.6 L189.2,84.6 L189.2,85 C188.8,85 187.8,85.6 186.3,86.7 L185,86.9 L184,86.9 C183,86.9 182.3,86.8 181.7,86.5 L180.9,86.7 L174.8,85 L174.8,84.6 L174.8,84.6 Z" id="Path" fill="#FFFFFF"></path>
            <rect id="Rectangle" fill="#FFFFFF" x="207.3" y="85.4" width="1" height="1"></rect>
            <polygon id="Path" fill="#FFFFFF" points="37.8 199.6 37.8 199.8 38.2 199.8 38.2 199.1"></polygon>
            <polygon id="Path" fill="#FFFFFF" points="44.9 178.4 44.9 179.1 45.3 179.1 45.3 178.8"></polygon>
            <path d="M69.6,152.1 L70.2,152.1 L70.4,153.6 C69.6,153.6 69.1,153.2 68.9,152.6 L69.6,152.1 Z" id="Path" fill="#FFFFFF"></path>
            <path d="M75.3,154.6 L75.3,154.8 C75.6,155.3 76,155.7 76.6,155.8 L76.6,155.6 L75.8,154.6 L75.3,154.6 Z" id="Path" fill="#FFFFFF"></path>
            <polygon id="Path" fill="#FFFFFF" points="76.9 175.1 76.9 175.3 77.6 176.2 77.8 176.2 77.8 175.5 77.4 175.1"></polygon>
            <polygon id="Path" fill="#FFFFFF" points="81.8 159.4 81.8 159.6 82.6 160.5 82.8 160.5 82.8 160.3 82.4 159 82.2 159"></polygon>
            <path d="M83.2,155 L83,155.2 L83,155.6 L83.4,156 L83.8,156 L83.8,155.8 C83.6,155.3 83.4,155 83.2,155 Z" id="Path" fill="#FFFFFF"></path>
            <rect id="Rectangle" fill="#FFFFFF" x="83.4" y="154.2" width="1" height="1"></rect>
            <polygon id="Path" fill="#FFFFFF" points="85.5 153.4 85.7 154 86.2 154 86.2 153.2 85.9 153.2 85.7 153.4"></polygon>
            <path d="M126.1,187.9 L127.4,188.3 C128.5,187.9 129.1,187.6 129.1,187.3 L129.1,186.9 L128.9,186.9 C127,187.1 126.1,187.5 126.1,187.9 Z" id="Path" fill="#FFFFFF"></path>
            <path d="M235.4,229.7 C240.4,229.7 246.3,230.1 253.2,231 L253.6,230.6 C255.9,230.6 264.6,233.1 279.6,238.1 L288.6,242.9 C298.6,249.7 303.7,257.5 303.7,266.3 L303.7,266.9 C303.7,270.8 302.9,273.4 301.4,274.9 L300.8,274.9 L300.4,274.5 L301.2,269.7 L301.2,267 C301.2,257.2 293.8,248.7 279,241.5 C265.9,236.1 252.5,233.3 239,233.3 L235.4,233.3 C218.7,233.3 201,236.6 182.2,243.3 L181.4,243.5 L181.2,243.3 L181.2,242.9 L182.2,242.9 L181.8,242.5 L181.6,242.5 L180.8,242.7 L180.2,242.5 L180.2,243.8 C180.2,244.3 175,246 164.5,249 L164.3,249 L164.3,248.8 L164.1,249 L163.9,249 L163.7,248.8 L162.7,249 C162.4,249 161.6,248.6 160.4,247.7 L160,247.7 C158.3,247.7 157.5,248.3 157.5,249.6 C158.3,249.9 158.8,250.2 158.8,250.4 C158.8,250.7 157.5,251.1 154.8,251.7 L154,251.5 C154,252.1 151.5,252.7 146.5,253.4 L145.9,252.8 L144.9,253.8 C143.5,253.1 142.8,252.4 142.8,251.5 L143.4,250.7 L143.2,250.5 L143,250.5 L142,250.7 C142,250.4 141.5,250.1 140.5,249.9 L139,250.1 C138.6,249.2 138.3,248.7 138,248.6 L137,248.8 L136.4,246.9 L136.6,246.7 L137.4,246.7 L138.4,247.7 L142,246.9 L142.4,246.9 C142.8,246.9 143.4,247.2 144.3,247.7 C144.7,247.2 144.9,246.7 144.9,246.2 C144.9,245.9 144.6,245.8 143.9,245.8 L143.9,245.4 L144.5,245.4 L145.5,245.2 C145.7,245.9 145.9,246.2 146.1,246.2 L146.7,246.2 C146.7,245.2 147.2,244.7 148.2,244.7 L152,244.1 L152.2,244.3 L151.8,245.3 L152.6,245.3 L152.6,244.3 C152.6,243.9 155.6,243.2 161.6,242.2 L177.5,238.4 L178.1,239 C178.1,238.2 179.5,237.6 182.3,237.3 L183.3,237.1 L183.5,237.3 C183.5,236.8 190.1,235.2 203.4,232.7 L206.1,232.3 L206.5,232.7 C206.5,231.7 214.3,230.7 229.9,229.8 L235.4,229.7 Z" id="Path" fill="#FFFFFF"></path>
            <path d="M148.9,152 L149.7,152 L151.4,153.5 L151.6,153.3 C151.8,154 152,154.3 152.2,154.3 L152.4,154.3 C152.4,154 153.6,153.4 156,152.6 L156.6,153.4 C156.6,152.8 156.7,152.6 157,152.6 L157.8,152.6 C158.7,152.6 159.6,152.8 160.7,153.2 L160.9,153 L161.1,153.2 L160.9,153.4 L160.9,154 L161.3,154 L161.3,154.2 C161.2,154.6 160.7,154.8 160,154.8 L159.4,154.8 C159.4,154.1 159.2,153.8 158.8,153.8 L158.4,154.2 C158.8,154.2 159,154.3 159,154.6 L159,154.8 C157.2,155.7 156.3,157.5 156.3,160.2 C156.6,160.2 156.7,160.5 156.7,161 L156.9,161 C156.9,160.4 157,160.2 157.3,160.2 L157.1,160 L157.1,159.6 C157.1,159.3 157.9,159.2 159.4,159.2 L159.4,159 C159,159 158.8,158.9 158.8,158.6 L158.8,158.4 L159.2,158 L159.4,158 L159.4,158.8 L159.6,158.8 C159.6,158.4 159.9,158.2 160.4,158.2 L160.4,158 L160.2,157.8 L160.2,157.6 L160,157.8 L159.6,157.8 C159.6,157.5 159.3,157.1 158.8,156.5 L158.8,156.3 L159.6,155.9 L160.2,155.9 L160.8,156.3 L162.1,155.9 L162.3,156.1 L162.3,158 L162.5,159 C161.9,159.1 161.4,159.5 161,160.3 L161.6,161.6 L161.4,162.4 L161.6,162.6 L161.4,163.2 L160.8,163.6 L160.6,163.6 L160.4,163.4 L160.2,163.4 L160.2,164 C161,164 161.6,164.3 161.9,165 L160.9,166.5 L160.5,166.5 L160.7,166.3 L160.7,166.2 L159.7,165.6 L159.5,165.8 L159.3,165.6 L159.3,165.4 L160.3,165 L160.3,164.6 L159.3,164.8 L159.3,164.6 L159.9,163.1 L159.3,162.7 C159.3,164.4 158.9,165.2 158,165.2 L157,163.9 L156.8,163.9 L156.8,164.1 L157,164.3 L157,164.5 L156.6,164.9 L156.6,168.7 L156.4,168.9 L156.6,169.1 L156.6,186.1 L156.8,186.1 L159.7,182.1 L159.7,181.5 L159.3,181.5 L159.3,181.2 L159.5,180.6 L159.3,180.8 L159.1,180.8 L158.9,180.6 L158.7,180.8 L158.3,180.8 L157.7,180.2 L157.9,180 L157.9,179.8 L159.4,180.2 L159.4,180 L158.1,177.9 L158.1,177.5 L158.5,177.5 L160,177.7 L160,175.6 L160.6,175.6 L160.6,177.9 L160.8,177.9 L160.8,175.6 L161,175.4 L161.2,175.4 L161.6,175.8 L161.6,176.2 L161.2,176.8 L161.4,177 L161.6,177 L161.2,179.1 L161.6,179.5 L161.6,179.7 L161.4,179.9 L161.4,180.1 L162,180.1 L162,179.9 L161.8,179.3 L162.2,179.3 L162.2,179.7 L162.6,179.7 C162.6,179.4 162.8,179.3 163.2,179.3 L163.2,178.9 L163,178.9 L163,179.2 L162.8,179.2 L162.8,178.6 C163.5,178.6 163.8,178.8 163.8,179 C166.8,177.7 169.1,177 170.7,176.9 L170.9,177.1 L170.9,177.3 L172.2,176.9 L176.2,176.9 L177.2,176.7 C177.4,177.4 177.6,177.7 177.8,177.7 L177.8,177.3 C181.8,178.1 183.9,178.8 183.9,179.4 L183.9,179.6 L183.5,179.6 L183.5,179.8 L183.9,179.8 L184.1,180 L184.5,179.6 C189,181.9 192.5,186.6 194.8,193.6 L195.8,198.4 L196.4,198.2 C198.4,198.2 200,198.9 201.2,200.3 C201.2,200.9 200.8,201.1 199.9,201.1 C197,202.1 195.5,204.1 195.5,207 C195.4,209.8 194.2,213.6 191.9,218.5 C188.8,223.5 184.3,227 178.3,229 L174.3,229.8 L174.3,232.1 L174,232.1 L174,229.8 L173.8,229.8 L173.2,230 L173.2,229.8 L173,230 L171.5,230 L171.7,232.5 L171.7,233.3 L171.5,238.7 L171.1,238.7 L171.1,235.2 L170.9,230 L170.5,230 L170.5,230.6 L170.1,230.6 L170.1,230.4 L170.3,230.2 L170.3,230 L169.3,230 L169,230.2 L168.8,230.2 L168.6,230 L168.6,230.2 L168.4,230 L168.2,230 L168,230.2 L161.5,228.5 C159.3,227.9 156.1,225.5 151.9,221.4 C148.7,225.7 146.5,228.4 145.2,229.6 L142.5,229.6 C142.1,229.6 141.9,227.8 141.9,224.2 L141.9,206 C141.9,203.7 140.2,202 136.7,201 L136.7,200.8 C136.7,199.6 138.2,198.7 141.1,198.3 L141.9,198.5 L142.1,157.9 C142.1,156.3 140.5,155.2 137.3,154.6 L137.1,153.8 C138.4,153.1 139.4,152.8 140.2,152.8 L141.7,152.8 L143.8,153 L143.6,153.8 L143.8,154.4 L143.6,154.6 L144.6,154.6 C144.6,154 144.7,153.8 145,153.8 L145.8,154 L147.1,153.6 L147.3,153.8 L147.5,153.8 L147.7,153.6 L147.5,153.4 L147.5,153.2 L148.9,152 Z M161.3,195.7 L161.1,196.7 L160.7,196.7 L160.5,194.2 L160.5,192.1 L160.9,192.1 L160.9,188.7 L160.7,188.7 L160.7,191.4 L160.3,191.4 L160.3,189.3 L160,189.3 C158.7,192.6 158.1,195.5 158.1,198.1 L160.6,198.5 L160.8,198.3 C160.8,198.7 161,198.9 161.4,198.9 L162.7,200.2 L162.7,200.4 L158.9,202.5 C157.9,203.6 157.4,204.4 157.4,205 L157.4,207.5 C157.4,216 159.7,221.5 164.3,224 L167,224.6 L166.6,221.7 L166.8,221.7 L166.6,221.5 L166.6,220.7 L166.8,219.4 C166.4,218.6 166.2,217.9 166.2,217.1 L166.4,217.1 L166,215.6 L165.6,209.5 L165.8,208.5 L165.4,206 L165.4,199.9 C165.4,197.4 165.3,195.3 165,193.6 L165.2,191.7 C165.2,191.3 165,191.1 164.6,191.1 L164.6,190.9 L165,190.5 C165,189.3 164.6,188.4 163.7,187.8 L163.7,186.5 L163.3,186.1 C161.9,186.6 161.2,187.3 161.2,188.4 L161.2,195.7 L161.3,195.7 Z M159.4,178.1 L159.4,178.5 L159.6,178.5 L159.6,178.1 L159.4,178.1 Z M159.8,169.1 L160.2,169.1 L160.4,172.2 L160.8,171.8 L160.8,169.3 L161.2,169.3 L161.2,169.5 L161.4,171.6 L161.2,171.8 L161.4,172 L161.2,172.2 C162,172.2 162.5,172.3 162.5,172.6 L161.9,173.2 L161.5,172.8 L161.5,173.2 L161.7,173.4 L161.7,173.6 L161.5,173.8 L161.3,173.8 L161.5,174 L161.5,174.8 L160.9,174.8 L160.9,172.3 L160.5,172.3 L160.5,175 C160.1,174.9 159.9,174.4 159.9,173.7 L159.9,169.1 L159.8,169.1 Z M160.7,178.1 L160.7,179.8 L160.9,179.8 L161.1,178.1 L160.7,178.1 Z M161.9,173.7 L162.3,173.7 L162.3,175.2 L161.9,175.2 L162.1,175 L161.9,174.8 L161.9,173.7 Z M166.7,215.4 L166.7,216.7 L166.9,216.7 L166.9,215.4 L166.7,215.4 Z M167.1,220.8 L167.1,221.2 L167.5,221.6 L167.7,221.6 L167.7,220.6 L167.1,220.8 Z M167.3,222.1 L167.3,223.8 L167.5,223.8 L167.5,222.1 L167.3,222.1 Z M167.6,224.1 L167.4,224.7 L168,224.7 L168,224.1 L167.6,224.1 Z M168.4,198.6 L168.2,203.8 L168.2,209 L168,216.2 L168.8,224.8 L169,224.8 L170,224.6 L169.8,224.4 L169.8,222.5 L170.2,222.5 L170.2,224.6 L170.6,224.6 L169.8,213.7 L169.6,213.7 L169.6,214.3 L170,221.8 L169.6,221.8 C168.9,212.6 168.6,206.3 168.6,203 L168.6,200.3 L168.8,198.8 L168.6,198.6 L168.4,198.6 L168.4,198.6 Z M171.3,210.3 L171.3,211.8 L171.7,224.1 C172.5,223.8 173,223.5 173,223.3 C172.9,222 172.8,221.4 172.6,221.4 L172.8,220.4 L172.8,218.5 L172.6,218.7 L172.4,218.7 L171.6,210.3 L171.3,210.3 L171.3,210.3 Z M173,185 L173.4,186.7 L173.4,187.7 L173.6,187.7 L175.7,186.7 L175.7,186.5 L175.1,185.7 L174.9,185.9 L174.7,185.9 L174.5,185.7 L174.3,185.9 L174,185.9 C173.7,185.9 173.4,185.6 173.4,185.1 L173,185.1 L173,185 Z M174.3,201.1 L173.7,212.4 L173.5,212.4 C173.9,214.3 174.1,216.8 174.1,219.9 L174.1,222.6 C177.7,219.4 179.5,214 179.5,206.3 L179.5,206.2 C179.5,204 178.1,202.4 175.3,201.4 L175.3,202.4 L174.9,202.4 L174.7,201.1 L174.3,201.1 Z M175.5,190 L175.9,191 C175.6,191 175.1,193.1 174.6,197.3 L174.4,199.6 L176.5,198.6 L176.1,190.2 L175.9,190 L175.5,190 L175.5,190 Z M175.7,186.9 L175.9,187.5 L175.5,189.2 L175.9,189.2 L176.9,189 C176.9,188.7 176.7,188.6 176.3,188.6 L176.3,187.3 L175.9,186.9 L175.7,186.9 L175.7,186.9 Z M177.2,190.9 L177.4,195.7 L177,195.7 L177,197.4 L176.8,197.6 L177,198.4 L179.5,198.4 L179.5,198.2 L179.3,196.3 L179.7,195.9 L179.7,195.7 C179.2,195.7 178.8,194.5 178.4,192.1 L178,192.1 L178,191.1 L177.8,190.1 L177.2,190.9 Z" id="Shape" fill="#FFFFFF"></path>
            <path d="M250.9,210.2 L250.3,210.2 C249.6,210.2 248.9,210.6 248.2,211.5 C244.5,219.2 239.4,223 232.9,223 L229.6,223 L227.5,222.2 L226.9,223.7 C226.4,223.7 225.7,223.4 225,222.7 L225.4,221.4 L223.5,219.9 C221.5,217.7 220.1,214.5 219.3,210.1 L216.8,210.7 C216,210.6 215.5,210.4 215.5,210.1 L215.5,209.9 L215.9,208.4 L217.6,208.8 L218,208.8 C218.4,208.8 218.8,208.2 219,206.9 L219,203.3 L221.7,203.3 L221.9,203.1 L222.1,203.3 L249.3,203.3 C251.5,203.3 252.6,202.7 252.6,201.4 C252.6,198.2 252.2,195.1 251.3,192 C247.5,181.5 240.6,176.3 230.8,176.3 L227.9,176.3 C220.8,176.3 214.5,179.3 209.1,185.3 C205.5,190.2 203.5,194.4 203.2,197.9 L202.2,197.7 C200.2,197.7 198.6,198.3 197.2,199.6 C197.2,200.3 198,200.9 199.7,201.3 C201.1,202 202.1,203.3 202.8,205.3 C203.1,205.3 203.3,204.9 203.4,204 L203.8,204 C204.8,205.3 206.1,205.9 207.6,205.9 L207.6,206.1 C207.6,206.4 207.4,206.5 207,206.5 L207,206.7 C207.6,207.3 208,207.7 208,208.2 C207.7,208.8 207,209 206.1,209 L205.5,209 C204.8,209 204.1,208.8 203.4,208.4 L203.2,208.6 L204,212.6 L204.2,212.6 L204.8,212 L204.8,211.8 L204.6,209.7 L205.2,209.7 C205.5,210.7 205.8,211.2 206.2,211.2 C207,211.2 207.6,211.5 208.1,212.2 L207.9,213.5 C207.9,214.2 207.3,214.8 206.2,215.4 L205.2,214.4 L205,214.4 L204.8,214.6 C204.8,215.3 205.3,215.8 206.3,216.3 L206.1,216.9 C206.8,218.6 207.4,219.4 207.8,219.4 C209.1,221.8 210.6,223 212.4,223 L212,221.5 C212.4,220.4 212.9,219.8 213.7,219.8 C214.4,219.8 215.6,221.5 217,225 C216.9,225.3 216.6,225.6 216,225.8 C215.3,225.8 215,225.5 215,225 C214.6,223.9 213.9,223.3 212.7,223.3 L212.7,224.1 C214.9,226 217.7,227.4 220.9,228.3 C223.5,229.1 226.2,229.6 229.1,229.6 L231,229.6 C236,229.6 240.9,227.7 245.7,223.9 C250.1,218.9 252.5,215.1 252.8,212.4 L252.8,211.6 C252.3,210.7 251.7,210.2 250.9,210.2 Z M219.7,193.5 C221,185.4 224.2,181.4 229.3,181.4 C232.3,181.4 234.6,182.7 236.2,185.4 C237,185.4 237.5,185.1 237.7,184.4 L237.5,183.8 L238.1,183.6 L238.1,183.8 L238.5,183.8 L238.3,184.6 C238.3,184.8 238.6,185.1 239.3,185.2 C239.3,185.6 238.6,185.9 237.2,186 L236.8,186 C238.1,189.2 238.7,192 238.7,194.6 C238.7,197 237.4,198.2 234.7,198.2 L219,198.2 L219.7,193.5 Z" id="Shape" fill="#FFFFFF"></path>
            <polygon id="Path" fill="#FFFFFF" points="38.8 137.2 38.8 139.1 39 139.1 39.2 138 39.2 137.2"></polygon>
            <rect id="Rectangle" fill="#FFFFFF" x="39.4" y="57.5" width="1" height="1"></rect>
            <polygon id="Path" fill="#FFFFFF" points="39.4 124.7 39.4 125.3 39.8 124.9 39.8 124.7"></polygon>
            <path d="M40,137.2 L39.8,139.2 C40.1,139.1 40.4,138.8 40.6,138.2 L40.4,137.4 L40.6,137.2 L40,137.2 Z" id="Path" fill="#FFFFFF"></path>
            <polygon id="Path" fill="#FFFFFF" points="40.2 56.3 40.2 56.7 40.6 56.7"></polygon>
            <polygon id="Path" fill="#FFFFFF" points="40.4 124.7 40.6 124.9 41.3 124.7 41.1 124.1"></polygon>
            <rect id="Rectangle" fill="#FFFFFF" x="41.1" y="137.8" width="1" height="1"></rect>
            <rect id="Rectangle" fill="#FFFFFF" x="41.3" y="123" width="1" height="1"></rect>
            <rect id="Rectangle" fill="#FFFFFF" x="41.7" y="123.6" width="1" height="1"></rect>
            <polygon id="Path" fill="#FFFFFF" points="42.1 139.1 42.1 139.5 42.5 139.5"></polygon>
            <polygon id="Path" fill="#FFFFFF" points="42.3 139.7 42.7 141.8 43 141.8 43 141.2 42.7 139.7"></polygon>
            <rect id="Rectangle" fill="#FFFFFF" x="43" y="142.8" width="1" height="1"></rect>
            <rect id="Rectangle" fill="#FFFFFF" x="43.2" y="143.5" width="1" height="1"></rect>
            <rect id="Rectangle" fill="#FFFFFF" x="43.4" y="151.6" width="1" height="1"></rect>
            <rect id="Rectangle" fill="#FFFFFF" x="44.2" y="149.3" width="1" height="1"></rect>
            <rect id="Rectangle" fill="#FFFFFF" x="45.9" y="152.5" width="1" height="1"></rect>
            <rect id="Rectangle" fill="#FFFFFF" x="45.9" y="153.7" width="1" height="1"></rect>
            <polygon id="Path" fill="#FFFFFF" points="46.1 55.4 46.7 56 46.9 56 46.9 55.8 46.5 55"></polygon>
            <rect id="Rectangle" fill="#FFFFFF" x="47.3" y="152.5" width="1" height="1"></rect>
            <path d="M48,143.3 L48,144.1 L48.2,145.4 L48,145.6 L48.2,147.7 L48.2,150 L47.8,150 L47.8,149.4 L47.6,149.4 L47.6,149.6 L48,153.6 L48.2,153.6 L48.2,153.2 L48.4,153 L48.2,152.8 L48,152.8 C48.6,150 48.8,148 48.8,146.5 L48.8,145.9 C48.8,145.4 48.6,145 48.2,144.4 L48.4,144.4 L48.6,144.6 L48.8,144.6 L48.8,144.2 L48.4,143.4 L48,143.4 L48,143.3 Z" id="Path" fill="#FFFFFF"></path>
            <polygon id="Path" fill="#FFFFFF" points="49.2 166.3 49 168.2 49.2 169 49.4 169 49.4 166.3"></polygon>
            <polygon id="Path" fill="#FFFFFF" points="50.7 164.6 50.7 164.8 50.9 165.7 51.1 165.7 51.1 165.2 50.9 164.6"></polygon>
            <rect id="Rectangle" fill="#FFFFFF" x="50.9" y="163.1" width="1" height="1"></rect>
            <rect id="Rectangle" fill="#FFFFFF" x="50.9" y="163.8" width="1" height="1"></rect>
            <polygon id="Path" fill="#FFFFFF" points="53 57.5 54 57.5 54.5 57.1 53.4 57.1"></polygon>
            <rect id="Rectangle" fill="#FFFFFF" x="53" y="160.8" width="1" height="1"></rect>
            <rect id="Rectangle" fill="#FFFFFF" x="54.5" y="151" width="1" height="1"></rect>
            <rect id="Rectangle" fill="#FFFFFF" x="55.5" y="137.2" width="1" height="1"></rect>
            <rect id="Rectangle" fill="#FFFFFF" x="58.9" y="140.1" width="1" height="1"></rect>
            <path d="M122.1,110 L122.1,111 L124.6,111 L125.9,111.2 C126.6,111 126.9,110.8 126.9,110.6 C126.7,109.5 126.2,108.9 125.4,108.9 L122.1,110 Z" id="Path" fill="#FFFFFF"></path>
            <path d="M174.8,84.6 L189.2,84.6 L189.2,85 C188.8,85 187.8,85.6 186.3,86.7 L185,86.9 L184,86.9 C183,86.9 182.3,86.8 181.7,86.5 L180.9,86.7 L174.8,85 L174.8,84.6 L174.8,84.6 Z" id="Path" fill="#FFFFFF"></path>
            <path d="M69.6,152.1 L70.2,152.1 L70.4,153.6 C69.6,153.6 69.1,153.2 68.9,152.6 L69.6,152.1 Z" id="Path" fill="#FFFFFF"></path>
            <path d="M75.3,154.6 L75.3,154.8 C75.6,155.3 76,155.7 76.6,155.8 L76.6,155.6 L75.8,154.6 L75.3,154.6 Z" id="Path" fill="#FFFFFF"></path>
            <polygon id="Path" fill="#FFFFFF" points="81.8 159.4 81.8 159.6 82.6 160.5 82.8 160.5 82.8 160.3 82.4 159 82.2 159"></polygon>
            <path d="M83.2,155 L83,155.2 L83,155.6 L83.4,156 L83.8,156 L83.8,155.8 C83.6,155.3 83.4,155 83.2,155 Z" id="Path" fill="#FFFFFF"></path>
            <rect id="Rectangle" fill="#FFFFFF" x="83.4" y="154.2" width="1" height="1"></rect>
            <polygon id="Path" fill="#FFFFFF" points="85.5 153.4 85.7 154 86.2 154 86.2 153.2 85.9 153.2 85.7 153.4"></polygon>
            <path d="M154.2,162.8 C154.8,164 155,165.1 155,166.1 C154.4,166.3 154.2,166.9 154.2,168 L154.2,168.4 L154.4,168.6 L154.4,168.8 L155,168.6 L154.8,166.7 L155.4,166.1 L155.2,164.8 L155.6,164.4 L155.2,164 L155.4,163.4 L155.2,163.4 L154.4,162.8 L154.2,162.8 L154.2,162.8 Z" id="Path" fill="#FFFFFF"></path>
            <rect id="Rectangle" fill="#FFFFFF" x="155.2" y="159.9" width="1" height="1"></rect>
            <polygon id="Path" fill="#FFFFFF" points="155.6 160.5 155.6 160.7 156 161.2 156 160.5"></polygon>
            <polygon id="Path" fill="#FFFFFF" points="156.7 161.4 156.7 161.8 157.1 161.4"></polygon>
            <polygon id="Path" fill="#FFFFFF" points="158.1 162.4 158.8 163 159 163 158.8 162.4"></polygon>
            <rect id="Rectangle" fill="#FFFFFF" x="159.4" y="160.1" width="1" height="1"></rect>
            <rect id="Rectangle" fill="#FFFFFF" x="159.4" y="178.1" width="1" height="1"></rect>
            <polygon id="Path" fill="#FFFFFF" points="160.7 178.1 160.7 179.8 160.9 179.8 161.1 178.1"></polygon>
            <rect id="Rectangle" fill="#FFFFFF" x="161.3" y="158.2" width="1" height="1"></rect>
            <rect id="Rectangle" fill="#FFFFFF" x="166.7" y="215.4" width="1" height="1.3"></rect>
            <polygon id="Path" fill="#FFFFFF" points="167.1 220.8 167.1 221.2 167.6 221.6 167.8 221.6 167.8 220.6"></polygon>
            <rect id="Rectangle" fill="#FFFFFF" x="167.3" y="222.1" width="1" height="1.7"></rect>
            <path d="M101.8,84.1 L103.9,84.1 C104.2,84.1 104.4,84.6 104.5,85.6 C105.3,85.6 105.8,85.9 106,86.4 L106,86.8 C105.3,87.5 105,88.1 105,88.5 L106,88.5 L106,88.7 C106,89.6 105.4,90.7 104.1,91.8 L102.8,91.6 C102.6,92.7 102.1,93.3 101.3,93.3 L101.5,94.3 C100.7,94.6 100.2,94.9 100.2,95.1 L100.2,95.7 L102.5,95.1 L102.9,95.1 L105.6,95.9 L106,95.1 L105.6,94.1 L105.8,93.9 L106,93.9 C106.3,93.9 106.4,94.2 106.4,94.7 L107.7,94.5 C108.4,94.5 108.9,95.5 109,97.4 L110.3,97.8 L110.3,98 C110.3,98.2 110,98.5 109.3,98.6 C109.4,99.6 109.6,100.1 109.9,100.1 C112.4,99.2 113.7,97.9 113.7,96.3 C113.5,95.4 112.9,94.7 112,94.2 L110.1,94.2 L109.9,95.7 L109.5,95.7 C109.2,95.7 109.1,95.5 109.1,95.1 L109.5,93.8 L109.1,93.4 L111.6,89.6 L111.2,89.6 L109.5,90 C108.6,88.9 108,88.3 107.6,88.3 L107.2,88.7 C106.4,88.7 105.9,88.4 105.5,87.7 L105.5,87.5 C105.5,87.3 105.8,87 106.5,86.9 L108.4,87.1 L109.7,86.7 C109.7,87.3 110.8,88 113,88.8 C114,89.8 114.5,90.9 114.5,91.9 C115.1,92.1 115.3,92.3 115.3,92.5 L115.3,93.1 L114.3,94.1 L114.3,94.9 C114.3,95.3 114.8,95.5 115.8,95.5 L115.8,96.1 C115.8,97.8 115.2,99.2 113.9,100.5 L113.7,100.7 L113.5,100.7 L112.2,100.5 L111.8,100.5 L111.8,100.7 C112.5,101.5 112.8,102.2 112.8,102.6 C111,104.4 108.8,105.3 106.3,105.3 C104.1,105.3 102.3,104.5 100.7,103 C101.4,102.4 101.7,101.7 101.7,101.1 L101.7,100.3 L101.3,99.9 L100.5,100.7 L100.3,100.7 L98.2,99.4 L98,96.9 L98.2,96.7 L99.5,97.1 L99.9,96.5 C99.5,96.5 99.3,96.1 99.3,95.2 L98.5,94.6 C98.8,93.4 99.9,92.1 101.8,90.6 L103.1,90 L103.1,90.2 L102.1,90 L101.3,90 C99.6,90 97.8,90.6 95.9,91.9 L94.9,91.7 L94.3,92.5 L94.5,92.7 L94.5,92.9 C90.2,97.1 88,99.6 88,100.6 L88,106.5 L89.7,106.5 C92.4,107.1 93.7,107.9 93.7,109 L91.8,109.6 L90.5,108.1 C89.9,108.3 89.7,108.5 89.7,108.7 L89.7,109.1 L90.7,110.1 C89,111 88.2,112.1 88.2,113.5 L88.2,121 L88,123.7 C88.3,129.1 89.2,131.9 90.5,131.9 L94.5,132.3 L98.1,132.3 C99.2,132.3 99.8,133.1 99.8,134.6 C99.8,136.6 99.5,137.5 99,137.5 L65.7,137.5 C65.2,137.5 65,136.8 64.9,135.4 C65,133.4 65.3,132.5 65.7,132.5 L70.9,132.3 C71.9,132.3 72.4,131.5 72.6,130 L72.6,113 C72.6,112.3 72,111.4 70.9,110.5 L70.9,109.2 C69.9,109.2 69.4,109.1 69.4,108.8 L68.1,109.2 L67.7,109.2 L67.1,108.6 L67.1,108.4 C68.3,107 69.9,106.3 71.9,106.3 L72.5,106.3 L72.5,101.3 L73.1,100.5 C72.7,100.5 72.5,99.1 72.5,96.3 C72.5,92.3 70.4,90.2 66.2,90.2 C64.1,90.2 63.1,89.9 63.1,89.4 L63.1,86.3 L63.5,85 L70.8,84.8 L78.1,84.8 L78.1,85.2 C76.1,85.2 74.7,85.8 73.9,86.9 L73.3,86.9 L69.7,86.5 C69,87.4 68.7,88.1 68.7,88.6 L68.9,88.8 L69.5,88.8 L78.5,86.9 L79.1,86.9 C80.8,86.9 82,87.2 82.9,87.7 L82.3,89 C82.5,89.6 82.7,89.8 82.9,89.8 L83.3,89.8 L86.2,89 L86.4,89 L86.4,91.1 C88.8,89 91,87.4 92.9,86.5 L93.1,87.5 L93.9,87.5 C95.9,87 96.8,86.1 96.8,84.8 C98.4,84.4 100.1,84.1 101.8,84.1 Z M74,93.9 L76.1,95.4 L76.9,95.4 C77.1,95.4 77.5,94.9 77.9,93.9 C77.9,93.1 77.2,92.5 75.8,92 C75.4,92 74.8,92.7 74,93.9 Z M75.2,109.8 C76.2,110.5 76.7,111.1 76.7,111.5 L77.1,111.5 C77.4,111.5 77.8,110.8 78.1,109.4 C77.3,108.8 76.6,108.6 76.2,108.6 C75.8,108.8 75.4,109.2 75.2,109.8 Z M75.4,100.6 C75.4,102 75.9,102.8 76.9,103.1 C77.6,103.1 78.2,102.4 78.6,101 C78.1,99.5 77.7,98.7 77.3,98.7 L77.1,98.7 C76,98.7 75.4,99.4 75.4,100.6 Z M78.2,91.4 L79,92 C79.8,91.7 80.3,90.6 80.3,88.7 L80.3,88.5 C80.1,88.5 79.8,89.1 79.5,90.2 L78.2,91.4 Z M79.4,106.5 C79.8,108.5 80.4,109.4 81.3,109.4 C82.3,108.9 82.8,108.4 82.8,107.7 C82.4,106.3 81.7,105.6 80.7,105.6 L80.3,105.6 L79.4,106.5 Z M81.1,96.2 L81.7,96.6 L83,96.6 L83.6,96 C83.3,95 82.9,94.5 82.6,94.5 C81.6,94.8 81.1,95.4 81.1,96.2 Z M81.5,101.5 L82.1,101.9 C82.4,101.8 82.7,101.5 82.9,100.9 L82.7,100.3 L82.1,100.3 C81.7,100.3 81.5,100.8 81.5,101.5 Z M84,96.9 L84.8,97.3 C85.1,97.3 85.5,97 86.1,96.3 L85.9,95.7 L85.1,95.7 C84.4,95.9 84,96.3 84,96.9 Z M89.9,91.8 L89.9,92.2 L91.2,93 L92.5,93 L91.9,90.9 L91.3,90.7 C90.6,91 90.2,91.3 89.9,91.8 Z M100.8,87 L101,87.6 L101.4,87.6 C101.7,87.6 102,87.2 102.2,86.3 L101.6,85.9 L101.4,85.9 C101.1,86 100.9,86.3 100.8,87 Z M102.2,97.7 L101.8,98.5 C102,99.1 102.2,99.3 102.4,99.3 L102.6,99.3 L103.2,98.7 L103.2,98.3 C103.3,98 102.9,97.8 102.2,97.7 Z M103.5,102.3 C103.8,104 104.6,104.8 105.8,104.8 L106.6,104.2 L106.6,103.2 C106.6,101.8 106,101.1 104.7,100.9 C104,100.9 103.7,101.4 103.7,102.4 L103.5,102.4 L103.5,102.3 Z M110,101.5 L109.8,102.5 C110.1,103.1 110.4,103.5 110.6,103.5 L110.8,103.5 L111.2,103.1 L111.2,102.9 C111.2,102.1 110.9,101.6 110.4,101.4 L110,101.4 L110,101.5 Z M111.6,91.8 L110.8,91.6 L110.6,91.8 L110.6,92 C110.9,92.8 111.2,93.3 111.4,93.3 L111.6,93.3 C112,93.2 112.2,92.6 112.2,91.6 L112.2,91.4 L111.6,91.8 Z" id="Shape" fill="#FFFFFF"></path>
            <path d="M159.1,164.4 L158.7,164.9 C158.8,164.9 159,164.7 159.1,164.4 Z" id="Path" fill="#FFFFFF"></path>
            <path d="M159.4,164.5 L159.4,164.7 L160.4,164.5 L160.4,164.9 L159.4,165.3 L159.4,165.5 L159.6,165.7 L159.8,165.5 L160.8,166.1 L160.8,166.3 L160.6,166.5 L161,166.5 L162,165 C161.7,164.3 161.1,164 160.3,164 L160.3,163.4 L160.5,163.4 L160.7,163.6 L160.9,163.6 L161.5,163.2 L161.7,162.6 L161.5,162.4 L161.7,161.6 L161.5,161.3 L159.5,163.7 L159.4,164.5 Z" id="Path" fill="#FFFFFF"></path>
            <path d="M32.8,310.2 L30.8,310.2 L28,303.6 L23.6,303.6 L23.6,310.2 L21.8,310.2 L21.8,295 L27.8,295 C29.4,295 30.6,295.4 31.4,296.3 C32.2,297.2 32.6,298.2 32.6,299.2 C32.6,300 32.4,300.8 31.9,301.5 C31.5,302.2 30.7,302.8 29.7,303.1 L32.8,310.2 Z M23.6,302.1 L27.6,302.1 C28.6,302.1 29.4,301.8 29.9,301.3 C30.4,300.7 30.7,300.1 30.7,299.3 C30.7,298.5 30.4,297.9 29.9,297.4 C29.4,297 28.7,296.7 27.8,296.7 L23.6,296.7 L23.6,302.1 L23.6,302.1 Z" id="Shape" fill="#FFFFFF"></path>
            <polygon id="Path" fill="#FFFFFF" points="60.4 308.6 60.4 310.3 50.6 310.3 50.6 295.1 60.2 295.1 60.2 296.8 52.5 296.8 52.5 301.6 58.6 301.6 58.6 303.1 52.5 303.1 52.5 308.6"></polygon>
            <path d="M78.1,306.2 L79.8,305.8 C80.5,307.9 82,308.9 84.3,308.9 C85.5,308.9 86.4,308.6 87,308.1 C87.6,307.6 87.9,306.9 87.9,306 C87.9,305.4 87.7,304.8 87.2,304.4 C86.7,304 86.2,303.7 85.6,303.6 L82.6,302.8 C81.8,302.6 81.2,302.4 80.7,302.1 C80.2,301.8 79.8,301.4 79.4,300.8 C79.1,300.2 78.9,299.5 78.9,298.8 C78.9,297.5 79.4,296.5 80.3,295.8 C81.3,295 82.5,294.7 84,294.7 C86.8,294.7 88.6,296 89.4,298.5 L87.7,299 C87.5,298.1 87,297.4 86.3,297 C85.6,296.5 84.8,296.3 83.9,296.3 C83.1,296.3 82.3,296.5 81.7,297 C81.1,297.4 80.7,298.1 80.7,298.9 C80.7,300 81.5,300.8 83.2,301.2 L86,301.9 C88.6,302.5 89.9,303.9 89.9,306.1 C89.9,307.4 89.4,308.5 88.4,309.4 C87.4,310.3 86,310.7 84.3,310.7 C81.2,310.6 79.1,309.1 78.1,306.2 Z" id="Path" fill="#FFFFFF"></path>
            <polygon id="Path" fill="#FFFFFF" points="109.6 310.2 107.7 310.2 107.7 295 109.6 295"></polygon>
            <path d="M127.3,310.2 L127.3,295 L132.4,295 C134.5,295 136.2,295.7 137.4,297.2 C138.6,298.7 139.2,300.5 139.2,302.6 C139.2,304.7 138.6,306.6 137.5,308 C136.3,309.5 134.9,310.2 133.1,310.2 L127.3,310.2 Z M129.2,308.6 L132.3,308.6 C133.9,308.6 135.2,308 136,306.9 C136.8,305.8 137.3,304.3 137.3,302.4 C137.3,300.9 136.9,299.6 136.1,298.4 C135.3,297.2 134,296.6 132.3,296.6 L129.2,296.6 L129.2,308.6 Z" id="Shape" fill="#FFFFFF"></path>
            <polygon id="Path" fill="#FFFFFF" points="166.8 308.6 166.8 310.3 157 310.3 157 295.1 166.6 295.1 166.6 296.8 158.9 296.8 158.9 301.6 165 301.6 165 303.1 158.9 303.1 158.9 308.6"></polygon>
            <path d="M195.7,310.2 L193.9,310.2 L186,296.9 L186,297.9 C186,298.3 186,298.6 186,298.9 L186,310.2 L184.5,310.2 L184.5,295 L186.9,295 L194.2,307.4 L194.2,306.3 C194.2,305.9 194.2,305.5 194.2,305.2 L194.2,295 L195.7,295 L195.7,310.2 Z" id="Path" fill="#FFFFFF"></path>
            <path d="M223.5,305.1 L225.2,305.5 C224.4,308.9 222.5,310.5 219.6,310.5 C217.7,310.5 216.2,309.7 215.1,308.2 C214,306.6 213.5,304.7 213.5,302.5 C213.5,300.2 214.1,298.3 215.2,296.9 C216.3,295.5 217.9,294.8 219.8,294.8 C222.7,294.8 224.5,296.4 225.3,299.7 L223.5,300.1 C222.8,297.7 221.6,296.5 219.8,296.5 C218.5,296.5 217.4,297.1 216.7,298.2 C216,299.3 215.6,300.9 215.6,302.9 C215.6,304.8 216,306.3 216.7,307.4 C217.5,308.5 218.5,309.1 219.7,309.1 C221.6,308.9 222.9,307.7 223.5,305.1 Z" id="Path" fill="#FFFFFF"></path>
            <polygon id="Path" fill="#FFFFFF" points="252.8 308.6 252.8 310.3 243 310.3 243 295.1 252.6 295.1 252.6 296.8 244.9 296.8 244.9 301.6 251 301.6 251 303.1 244.9 303.1 244.9 308.6"></polygon>
            <path d="M44,51.9 L44.4,51.9 C44.7,54.1 45.1,55.2 45.7,55.2 C46,54.2 46.3,53.7 46.5,53.7 L46.7,53.7 C46.7,54.3 47,54.7 47.5,55 C48.9,55 50.3,54.4 51.7,53.1 C51.7,53.4 52.7,53.9 54.8,54.4 L54.6,54.6 L54.6,54.8 L55.2,56.7 L54.8,56.7 L54.8,56.9 L55.2,56.9 L58.3,53.6 L58.5,53.6 L56.8,55.5 L56.8,55.7 L58.3,55.5 L58.7,55.5 C58.2,56.1 56.9,56.9 54.5,57.8 L54.7,58 L54.7,58.2 L54.1,58.8 C54.1,58.5 53.9,58.4 53.5,58.4 C53.1,58.4 52.7,58.8 52.2,59.7 C56,62.2 57.9,64.4 57.9,66.2 L58.1,68.5 C58.1,69.8 57.6,71.2 56.6,72.7 L57.2,73.3 L58.2,73.1 L58.4,73.3 L58.4,73.5 C58.1,74.3 57.8,74.8 57.6,74.8 C57.6,74.4 57.4,74.2 57,74.2 L56.2,74.4 L56,73.6 C54,75.4 52.4,76.3 51.2,76.3 L51.2,76.5 L51.4,76.7 L51.4,76.9 C51.2,76.9 51,77.2 50.8,77.7 C50.8,78 51.2,78.5 52.1,79.2 L52.1,79.4 L51.7,79.8 L51.5,79.8 L51.5,79.2 L51.1,79.2 L51.5,80.5 C51.4,81.3 51.2,81.8 50.9,81.8 L50.5,81.8 C49.4,81.8 48.5,80.8 47.8,78.7 L48.2,77.4 C48.2,76.8 47.6,76.6 46.3,76.6 C44.2,76.1 42.4,74.8 40.6,72.6 L40.2,72.6 L40.4,73.9 C40.2,74.8 39.6,75.6 38.7,76.2 L38.3,75.8 C38.9,75.1 39.1,74.5 39.1,74.1 L38.9,74.3 L38.7,74.3 L38.7,74.1 C38.8,73.3 39,72.8 39.3,72.8 L39.3,73.2 L39.5,73.2 L39.5,73 L39.3,72.2 L39.9,71.2 C39.6,69.4 39.2,68.5 38.6,68.5 L37.3,66.8 L36.9,66.8 C36.2,66.8 35.5,67 34.8,67.4 L34.8,67 L35.8,65.7 L35.2,65.3 C35.3,64.8 36.1,63.9 37.7,62.6 L37.3,62.6 L37.3,62.4 C37.5,61.8 37.9,61.6 38.3,61.6 L38.1,61.4 L38.1,61 L38.5,61 L38.5,60.8 L37.7,60.8 L37.7,61.2 L36.9,61.2 L36.9,61 C36.9,60.8 37.5,60.4 38.8,60 L38.2,59.2 L39,59 L39,58.6 C39,57.9 37.7,56.3 35,53.8 L35,53.4 C36.7,54.8 37.5,55.7 37.5,56.1 L37.9,56.1 L37.9,55.2 L38.5,55.2 L39.3,55.8 L39.5,55.8 L39.5,55.4 L39.7,55.4 L40.1,55.8 C40.1,56.1 40.4,56.2 41.1,56.2 L41.3,56.4 L41.5,56.2 L41.5,55.8 L41.7,55.8 L42.3,56.2 L42.5,56.2 L42.3,55.2 L42.5,55 L42.7,55 L43.5,55.6 L43.7,55 L43.5,52.7 L43.5,51.9 L44,51.9 Z" id="Path" fill="#E30923"></path>
            <path d="M159.8,169.1 L160.2,169.1 L160.4,172.2 L160.8,171.8 L160.8,169.3 L161.2,169.3 L161.2,169.5 L161.4,171.6 L161.2,171.8 L161.4,172 L161.2,172.2 C162,172.2 162.5,172.3 162.5,172.6 L161.9,173.2 L161.5,172.8 L161.5,173.2 L161.7,173.4 L161.7,173.6 L161.5,173.8 L161.3,173.8 L161.5,174 L161.5,174.8 L160.9,174.8 L160.9,172.3 L160.5,172.3 L160.5,175 C160.1,174.9 159.9,174.4 159.9,173.7 L159.9,169.1 L159.8,169.1 Z" id="Path" fill="#E30923"></path>
            <polygon id="Path" fill="#E30923" points="161.9 173.7 162.3 173.7 162.3 175.2 161.9 175.2 162.1 175 161.9 174.8"></polygon>
            <path d="M63.3,132 L62.9,132 L62.9,133 L61.9,134 L61.7,134 L61.7,133.8 L61.9,133.6 L61.9,133.4 L61.3,133.4 L62.3,132.1 L62.3,131.9 L61.9,131.9 L62.5,131.1 L62.7,131.1 L62.9,131.3 L63.5,131.3 L62.9,130.5 L62,131.2 L61.6,131.2 L61.2,129.5 L61.4,129.3 L61.4,128.7 L61,128.7 L61.2,128.1 L60.6,126.2 L60.8,126 L60.8,125.8 C60.8,125.5 60.6,125.4 60.2,125.4 L60.4,125.2 C60.4,124.1 60.1,123.4 59.4,123.1 L59.4,122.9 L59.6,122.7 C59.1,121.6 58.5,121 57.5,121 C57.5,120.6 57.3,120.4 56.9,120.4 C55.6,120 55.9,119.2 55.6,116.8 C55.4,114.4 55.1,114 54,114 C53,114 51.9,114.5 52.6,117.1 C53.3,119.6 52.2,118.7 52.2,120.5 C52.2,122.3 52.1,122.6 50.6,123.2 C49.1,123.8 49.8,121.3 49.5,119.3 C49.2,117.3 48.9,116.1 48.7,115.8 C48.4,115.5 48.3,115.2 47.7,116.3 C47.2,117.4 48.2,121 48.2,122.3 C48.2,123.6 46.6,124.1 46.6,122.8 C46.6,121.5 46.3,121.6 45.6,120.9 C44.9,120.2 45.5,118.9 45.1,118.5 C44.7,118.1 43.4,118.6 43.4,120.4 C43.4,122.2 42.3,122.5 42.3,122.5 L41.9,122.5 L41.7,122.3 C41.7,122.6 41.3,122.9 40.7,123.1 L40.5,123.1 L40.3,122.9 L39.9,123.3 L39.1,125 L39.3,125.8 C39.9,125.8 40.1,126 40.1,126.4 L39.5,130.4 L39.7,130.6 L39.7,131 C39.1,131 38.9,131.3 38.9,131.8 L38.7,131.8 L37.7,131.6 L37.7,132 C37.7,132 39.2,132.8 38.7,134.5 C38.3,136.3 38.5,135.5 38.7,135.7 C38.9,135.9 38.9,136.1 38.8,136.4 C38.7,136.7 38.5,137 38.7,137.2 C38.7,137.2 38.7,137.2 38.7,137.3 L38.7,139.1 L38.3,139.5 L38.5,140.8 L38.9,140.8 C38.9,140 39,139.5 39.3,139.5 L39.3,140.8 L39.9,140.8 C39.9,140.1 40.2,139.7 40.7,139.5 L40.9,140.5 L40.5,140.9 L40.5,141.3 L40.7,141.3 C41,141.3 41.1,140.8 41.1,139.8 L41.3,139.8 L41.5,141.9 L41.5,142.5 L41.9,142.9 L42.1,142.9 L42.3,142.7 L41.7,140 L41.7,138.7 L41.9,138.7 C42.3,141.4 42.8,143.3 43.4,144.3 L43.6,144.1 L43.8,144.1 C44.3,144.1 44.6,145 44.8,146.8 L44.8,148.3 L44.4,148.7 L44,148.3 L43.8,148.3 L43.6,148.5 L43.8,150.6 L43.8,151 L43.6,151.2 L43.4,151.2 L43,151.2 L42.8,151.2 C42.9,153.3 43.2,154.3 43.6,154.3 L43.6,154.7 L43.4,155.5 L43.8,156.8 L43.6,156.8 L44,162.2 L43.8,163 L43.8,163.2 L44,163.4 L43.8,164.2 L44,165.2 L43.6,165.2 L44.2,166.9 L44,167.1 L44,167.3 L45.3,167.3 L45.7,166.5 L45.1,166.7 L44.5,166.7 L44.5,166.5 C45.1,166.5 45.3,166.2 45.3,165.5 L45.9,165.5 C45.9,165.9 46,166.1 46.3,166.1 L46.3,166.5 L46.5,167.8 L46.3,168.4 C47,169.7 47.3,171.9 47.3,174.9 L47.7,174.5 L47.7,173.7 L47.5,173.5 L47.9,172.7 L47.5,171.2 L47.7,171.2 L47.9,171 L47.9,170.8 L47.7,170.6 L47.9,169.8 L47.7,169 L47.7,168 L48.1,167.6 L48.1,169.9 L48.3,170.1 L48.9,169.7 L49.1,169.7 L49.5,171 L49.7,171 L49.9,169.1 L49.7,168.9 C50.1,166.9 50.5,166 51,166 L51.2,166.8 L50.6,166.8 L50.6,167.2 L51.2,167.4 L50.8,168.9 L50.8,169.1 L51,169.1 L51,168.7 L51.4,168.7 L51.6,168.9 L52,167.4 L51.8,166.8 L52.4,164.7 L52.2,164.5 L52.4,164.3 L52.4,164.1 L52.2,163.9 C52.6,163.7 52.8,163.2 52.8,162.6 L53,162.6 L53,163.9 L52.6,163.9 L52.6,165.8 L53,165.8 L52.8,166.6 L53,167.4 L53,169.3 L53.4,169.3 L53.4,168.5 L53.2,168.3 L53.4,168.1 L53.4,164.2 L53.6,164.2 L53.8,164.4 L54.2,164.4 L54.2,163.8 L54,164 L53.6,164 L53.6,163.8 L54,163.8 L54,163.4 L53.6,163.4 L53.6,163.2 L53.8,162.4 L53.8,162.2 L53.6,162 C53.7,159.7 54.1,158 54.6,156.8 L54.8,156.8 L55,157 L55.4,153.9 L55.4,153.5 C55.8,153.5 56,153.4 56,153.1 L55.4,153.1 L55.2,153.3 L54.8,151 L55,150.4 L55,150.2 L54.6,150.2 L54.6,150.6 L54.4,150.6 C54.1,150.2 53.7,150 53.4,150 L53.4,149.8 L54.2,147.3 L54.2,145.6 C54.2,144.2 54.4,143.5 54.8,143.5 L54.8,143.1 L54.6,143.1 L54.4,143.3 L55,138.1 L55.2,138.1 L55.4,138.7 L55.2,138.9 L55.2,139.7 L55.6,139.7 L55.6,139.5 L55.8,137.5 L56.8,137.5 L57.2,140 L57.2,142.5 L57,142.7 L57.4,142.7 L57.4,145 L57.6,145.2 L57.8,145.2 L58,145 L58,144.8 L57.8,144.6 L57.8,144.4 L58,144.4 L58.2,144.6 L59.2,143.8 L59.2,143.6 L59,143.4 C59.3,143.4 59.4,143 59.4,142.4 C60,141.9 60.3,141.1 60.4,139.9 C59.8,139.9 59.4,139.3 59.1,138.1 L58.7,138.1 L58.7,138.9 L58.9,139.1 L58.7,139.3 L58.3,138.9 L58.3,137.2 L58.9,137.2 L59.1,137.4 L59.3,137.2 L59.5,137.2 L59.7,137.4 L59.9,137.2 L62.2,137.2 C63.2,137.2 63.7,136.4 63.7,134.7 L63.7,133 L63.3,132 Z" id="Path" fill="#E30923"></path>
            <path d="M160.4,164.1 L160.4,163.5 L160.6,163.5 L160.8,163.7 L161,163.7 L161.6,163.3 L161.8,162.7 L161.6,162.5 L161.8,161.7 L161.2,160.4 C161.6,159.7 162.1,159.3 162.7,159.1 L162.5,158.1 L162.5,156.2 L162.3,156 L161,156.4 L160.4,156 L159.8,156 L159,156.4 L159,156.6 C159.6,157.1 159.8,157.5 159.8,157.9 L160.2,157.9 L160.4,157.7 L160.4,157.9 L160.6,158.1 L160.6,158.3 C160,158.3 159.8,158.5 159.8,158.9 L159.6,158.9 L159.6,158.1 L159.4,158.1 L159,158.5 L159,158.7 C159,159 159.2,159.1 159.6,159.1 L159.6,159.3 C158.1,159.3 157.3,159.4 157.3,159.7 L157.3,160.1 L157.5,160.3 C157.2,160.3 157.1,160.6 157.1,161.1 L156.9,161.1 C156.9,160.5 156.8,160.3 156.5,160.3 C156.5,160.3 156.1,159.4 155.3,159.3 C154.5,159.2 153.6,159.1 153.6,159.1 C153.6,159.1 152.9,159.3 153.4,159.7 C153.9,160.1 154.5,160.5 154.4,160.8 C154.3,161.2 154.4,160.9 154,161.4 C153.6,162 153.2,161.6 153.6,162.5 C154,163.3 152.9,164.2 153.8,164.1 C154.1,164.1 154.3,164 154.6,163.9 C154.5,163.6 154.3,163.2 154.2,162.8 L154.4,162.8 L155.2,163.4 L155.4,163.4 L155.3,163.7 C155.7,163.6 156.1,163.7 156.2,163.9 C156.5,164.5 156.8,163.9 156.8,163.9 C156.8,163.9 156.8,163.9 156.9,163.9 L156.9,163.9 L157.1,163.9 L158.1,165.2 C158.9,165.2 159.4,164.4 159.4,162.7 L160,163.1 L159.4,164.6 L159.4,164.8 L160.4,164.6 L160.4,165 L159.4,165.4 L159.4,165.6 L159.6,165.8 L159.8,165.6 L160.8,166.2 L160.8,166.4 L160.6,166.6 L161,166.6 L162,165.1 C161.8,164.4 161.2,164.1 160.4,164.1 Z" id="Path" fill="#E30923"></path>
            <path d="M161.3,172.1 L161.5,171.6 L161.3,171.2 L161.5,170.7 L161.3,166.1 L161.3,165.6 L160.9,165.6 L160.9,171.1 L160.5,172 L160.3,165.2 L159.9,165.2 L159.9,175.7 C159.9,177.2 160.1,178.1 160.5,178.4 L160.5,172.5 L160.9,172.5 L160.9,178 L161.5,178 L161.5,176.2 L161.3,175.7 L161.5,175.7 L161.7,175.2 L161.7,174.7 L161.5,174.2 L161.5,173.3 L161.9,174.2 L162.5,172.8 C162.5,172.4 162.1,172.1 161.3,172.1 Z" id="Path" fill="#E30923"></path>
            <polygon id="Path" fill="#E30923" points="162.3 173.7 161.9 173.7 161.9 174.8 162.1 175 161.9 175.2 162.3 175.2"></polygon>
            <path d="M177.8,190 L177,189 L176,189.2 L175.6,189.2 L176,187.5 L175.8,186.9 L175.8,186.7 L173.7,187.7 L173.5,187.7 L173.5,186.7 L173.1,185 C173.1,185 172.5,184.6 172.8,183.8 C173.1,183.1 173.1,183.5 172.8,182.4 C172.5,181.4 173.7,182.3 174.1,181.7 C174.5,181.1 175.5,180.5 173.4,179.8 C171.3,179.1 171.1,177.2 171.1,177.2 L171.1,177 L170.9,176.8 C169.3,176.9 167,177.6 164,178.9 C164,178.7 163.7,178.5 163,178.5 L163,179.1 L163.2,179.1 L163.4,178.9 L163.6,178.9 L163.6,179.3 C163.2,179.3 163,179.4 163,179.7 L162.6,179.7 L162.6,179.3 L162.2,179.3 L162.4,179.9 L162.4,180.1 L161.8,180.1 L161.8,179.9 L162,179.7 L162,179.5 L161.6,179.1 L162,177 L161.8,177 L161.6,176.8 L162,176.2 L162,175.8 L161.6,175.4 L161.4,175.4 L161.2,175.6 L161.2,177.9 L161,177.9 L161,175.6 L160,175.6 L160,177.7 L158.5,177.5 L158.1,177.5 L158.1,177.9 L159.4,180 L159.4,180.2 L157.9,179.8 L157.9,180 L157.7,180.2 L158.3,180.8 L158.7,180.8 L158.9,180.6 L159.1,180.8 L159.3,180.8 L159.5,180.6 L159.3,181.2 L159.3,181.4 L159.7,181.4 L159.7,182 C159.7,182 159.4,187.9 159.9,189.2 C159.9,189.2 159.9,189.3 159.9,189.3 L160.1,189.3 L160.1,191.4 L160.5,191.4 L160.5,188.7 L160.7,188.7 L160.7,192.1 L160.3,192.1 L160.3,194.2 L160.5,196.7 L160.9,196.7 L161.1,195.7 L161.1,188.6 C161.1,187.5 161.8,186.8 163.2,186.3 L163.6,186.7 L163.6,188 C164.4,188.6 164.9,189.5 164.9,190.7 L164.5,191.1 L164.5,191.3 C164.9,191.3 165.1,191.5 165.1,191.9 L164.9,193.8 C165.2,195.5 165.3,197.6 165.3,200.1 L165.3,206.2 L165.7,208.7 L165.5,209.7 L165.9,215.8 L166.3,217.3 L166.1,217.3 C166.1,218.1 166.3,218.8 166.7,219.6 L166.5,220.9 L166.5,221.7 L166.7,221.9 L166.5,221.9 L166.9,224.8 L167,224.9 L167.7,230.3 L167.7,230.3 L167.9,230.1 L168.1,230.1 L168.3,230.3 L168.3,230.1 L168.5,230.3 L168.7,230.3 L168.9,230.1 L168.5,224.9 L168,216.2 L168.2,209.1 L168.2,203.9 L168.4,198.7 L168.6,198.7 L168.8,198.9 L168.6,200.4 L168.6,203.1 C168.6,206.4 168.9,212.7 169.6,221.9 L170,221.9 L169.6,214.4 L169.6,213.8 L169.8,213.8 L170.6,224.7 L170.2,224.7 L170.2,222.6 L169.8,222.6 L169.8,224.5 L170,224.7 L170.2,230.1 L170.2,230.3 L170,230.5 L170,230.7 L170.4,230.7 L170.4,230.1 L170.8,230.1 L171,235.3 L171,238.8 L171.4,238.8 L171.6,233.4 L171.6,232.6 L171.4,230.1 L171.7,224.2 C171.7,224.2 171.7,224.2 171.7,224.2 L171.3,211.9 L171.3,210.4 L171.5,210.4 L172.3,218.8 L172.5,218.8 L172.7,218.6 L172.7,220.5 L172.5,221.5 C172.7,221.5 172.8,222.1 172.9,223.4 L173.1,229.9 L173.1,230.1 L173.7,229.9 L173.9,229.9 L173.9,232.2 L174,232.2 L174.3,229.9 L173.9,222.8 L173.9,220.1 C173.9,216.9 173.7,214.4 173.3,212.6 L173.5,212.6 L174.1,201.3 L174.5,201.3 L174.7,202.6 L175.1,202.6 L175.1,201.6 C175,201 176.8,198.7 176.8,198.7 L176.6,197.9 L176.8,197.7 L176.8,196 L177.2,196 L177,191.2 L177.8,190 Z" id="Path" fill="#E30923"></path>
            <path d="M70.2,210.4 C69.9,210.4 69.7,211 69.6,212.1 L69.4,212.1 C69.4,211 69.3,210.4 69,210.4 L67.7,210.8 C67,213.7 64.7,216.9 60.8,220.4 C60.1,220.4 59.5,221.2 59.1,222.9 L58.7,222.9 L58.5,222.7 L58.7,222.1 L58.7,221.9 L58.5,221.7 C56.4,222.5 54.6,223 53.1,223 L51.8,223 C49.9,223 48.2,222.6 46.8,221.7 C45.4,221.7 44.4,221 43.9,219.6 C42.2,219.6 41.4,219 41.4,217.9 L41.8,217.5 C39.8,212.9 38.9,208.9 38.9,205.6 C39.3,204.1 40.2,202.6 41.6,201.2 C43.6,200.8 44.5,200.3 44.5,199.7 C43.3,198.3 41.6,197.6 39.3,197.6 L39,197.6 C39,194.5 39.8,191 41.5,187.1 C42.8,184.4 44.8,182.6 47.6,181.7 C49,181.7 49.7,181.4 49.7,180.9 L50.1,181.3 C54.3,181.3 58.3,183.5 62,188 C65,192.8 66.8,195.6 67.7,196.2 L69.6,196.2 C70.2,196.2 70.4,195.3 70.4,193.4 L70.4,193.4 L70.4,193.3 L70.4,183.3 L70.4,182.7 L70.4,179.1 L70.4,178.2 C70.4,176.5 70.1,175.7 69.6,175.7 L68.8,175.7 C67.5,175.7 65.8,177 63.6,179.5 C58.7,177.4 54.7,176.4 51.5,176.4 L49.6,176.4 C47.7,176.4 46.2,176.5 45,176.8 L45,177.2 L45.4,177.2 L45.4,177.8 L45,177.8 C44.8,177.8 44.6,177.5 44.4,177 L42.5,177.2 C35.7,179.3 30.9,182.5 28.1,186.8 L28.3,187.4 L28.3,187.6 L28.1,187.6 L27.9,187.4 L27.7,187.4 C25.4,190.3 23.9,193.7 23.1,197.9 L22.1,197.7 C20.1,197.7 18.5,198.3 17.3,199.6 L17.3,200.4 L17.5,200.6 C19,200.6 20.5,201.5 22.1,203.3 C23.1,209 24.1,212.9 25,215.2 C27.6,220 30,222.8 32.3,223.8 C32.6,224.5 33.3,225.1 34.4,225.7 L35.4,225.1 C36.1,225.1 36.6,225.5 36.9,226.1 L37.1,225.9 C37.9,225.9 38.4,226.2 38.8,226.9 L38.4,227.5 L38.4,227.7 C40.5,228.4 42.7,228.9 45.1,229.2 L45.9,228.6 L46.3,228.6 L46.3,229 L46.1,229.2 L46.3,229.2 L46.5,229.4 L49,229.4 C51.2,229.4 52.7,229.3 53.4,229 L53.2,228.4 C53.2,228 53.6,227.6 54.5,227.4 L55.1,228 L54.9,228.6 L54.9,228.8 C57.5,228.2 58.9,227.7 58.9,227.3 C58.9,227 58.7,226.9 58.3,226.9 L59.8,224 C60.4,224.2 60.6,224.4 60.6,224.6 C61.2,224.6 61.9,224.3 62.7,223.8 L64.4,224.2 L64.6,224.2 L64.8,224 C69.4,218.7 71.7,215 71.7,212.7 L71.7,211.4 C71.2,211 70.8,210.6 70.2,210.4 Z" id="Path" fill="#FFFFFF"></path>
            <path d="M137.4,252.1 L137.6,251.9 C137.6,251.6 137.3,251.5 136.8,251.5 L137,250.5 L137,250.3 L136.4,249.7 L133.7,249.7 L131,251 L129.3,250.6 C128.7,250.8 128.5,251.3 128.5,252.1 L128.3,252.1 C126.9,250.8 126.2,249.8 126.2,249 L126.6,248.4 C127.2,248.4 128,248.8 128.9,249.4 C129.1,249.4 129.3,249.1 129.5,248.6 L129.5,248.2 L129.3,248 C128.9,248 128.7,247.9 128.7,247.6 C125,248 121.9,248.2 119.3,248.2 L118.5,248.6 L118.3,248.6 L118.3,248.2 L116.4,248.4 C116.2,249 115.7,249.2 115.1,249.2 L113.6,249.2 L112.6,249 L112.4,249.2 L112.6,249.4 C112.6,250.1 112.3,250.7 111.6,251.3 L111.2,251.3 L110.8,248.8 L110.8,248.2 L110.6,248.2 L110.2,248.6 L109.6,248.2 L108.6,248.2 C108.4,249.2 108,249.7 107.6,249.7 C107.6,249.4 107.2,249.3 106.6,249.3 C105.8,249.3 105.3,249.6 105.3,250.1 L104.5,250.1 L104.3,249.9 L104.7,248.6 L104.7,248.4 L104.5,248.2 C103.2,248.2 102.4,248.1 102.2,247.8 L101,247.8 L100.8,248 L100.8,247.8 L89.9,245.9 L88.9,246.1 L88.3,245.5 L87.5,245.5 L87.1,246.8 L86.1,246.8 L85.9,246.2 L86.3,245.4 L86.3,245.2 C81.7,243.8 77.6,242.2 74,240.4 C73.6,240.4 73.4,240.5 73.4,240.8 L71.7,240.6 C71.3,240.6 71,240.9 70.7,241.6 L70.3,241.2 L71.1,239.9 L71.3,239.9 L71.5,240.1 L71.7,240.1 L72.1,239.7 L72.1,239.2 L64.8,233.8 C59.2,227.3 56.4,220.7 56.4,214.1 L56.4,213.2 L56.2,213 L56.4,212.8 L56.4,212.2 C56.4,210.2 56.9,207.9 57.9,205.3 C60.6,199.6 65.6,195.3 73,192.5 C74.3,193.7 74.9,194.9 74.9,196.1 L74.9,209.9 C74.9,213.6 76.2,217 78.7,219.9 C84.9,226.3 92.8,229.5 102.6,229.5 L105.3,229.5 C108,229.5 110.9,229.2 114.1,228.5 C126.7,225.1 132.9,218.3 132.9,208.2 L132.9,195.2 C132.9,194.3 133.7,193.2 135.4,191.8 C137.4,191.2 138.3,190.7 138.3,190.1 C136.9,188.8 135.7,188.2 134.5,188.2 L132.8,188.2 L132.8,161.2 C132.8,157.5 133.9,155.1 136.1,153.9 C138.2,153.6 139.2,153.1 139.2,152.4 C138.2,151.6 136.9,151.1 135.4,151.1 L134.6,151.1 L131.5,151.7 L129,150.2 C128.3,150.2 127.4,150.7 126.3,151.7 L123.2,151.1 L122.2,151.1 C120.5,151.1 119.2,151.5 118.4,152.4 L118.4,152.6 C118.4,153.1 119.2,153.4 120.7,153.6 C123.4,154.7 124.7,156.3 124.7,158.4 L124.7,188.1 L123.7,188.1 C121.8,188.1 120.4,188.7 119.3,190 L119.3,190.4 C122.9,191.8 124.7,193.5 124.7,195.4 L124.7,206.5 C124.7,208.5 124.4,210.8 123.7,213.4 C121,220.2 115.9,223.7 108.4,223.7 C105.1,223.7 101.8,222.9 98.4,221.4 C93.9,219 91.7,212.9 91.7,203.2 L91.7,195.5 C91.7,194 92.7,192.7 94.8,191.5 C97.9,191.5 102.2,193.6 107.8,197.8 L108.2,197.4 L108.2,197.2 C108.2,196.5 107.6,195.5 106.3,194.3 C101.2,190.6 96.3,188.5 91.7,188 L91.7,163.2 L88.6,161.5 L89,159.6 L89,159.4 L89.6,159.6 L90,159.2 L89.8,158.2 C90.6,157.6 91.3,157.4 91.7,157.4 L91.7,156.4 C91.7,155.5 92.5,154.7 94,154.1 C96,153.8 96.9,153.4 96.9,152.8 L96.9,152.6 C95.8,151.6 94.4,151.1 92.5,151.1 C90.5,151.1 88.8,151.7 87.3,152.8 L84.6,151.1 L84.4,151.1 C84.7,151.7 85,151.9 85.4,151.9 L84.6,153.6 C83.5,152.9 82.9,152.3 82.9,151.7 L83.7,150.7 L83.7,150.5 L83.5,150.5 C81.8,151 81,151.6 81,152.4 L80.8,152.2 C80.3,152.2 79.9,152.4 79.3,152.8 L79.1,152.8 L77.2,151.8 C76.8,151.8 76.6,152 76.6,152.4 C75.3,151.6 74.4,151.1 73.9,151.1 C72.6,151.1 71.6,151.9 71,153.6 L71.2,153.6 L71.4,153.8 L71.6,153.8 L71.8,153.6 C71.8,153.8 72.2,154.1 73.1,154.4 L73.5,154.4 L73.1,153.6 L73.3,153.6 L74.1,154.4 L73.5,154.4 C74.3,155 74.9,156.1 75.4,157.5 L76.4,157.3 L76.6,157.3 L77.9,157.7 L77.7,159 L77.9,159.8 C77.2,160.9 76.7,161.5 76.2,161.5 C75.7,161.5 75.5,161.1 75.4,160.2 L75,160.6 L75,169.2 L75.2,169.4 L75,169.6 L75,171.7 L75.6,171.5 C76.6,172.1 77.1,173 77.1,174.2 L76.5,174.8 L76.1,174.8 C75.8,174.8 75.6,174.5 75.5,173.8 L75.1,173.8 L75.1,181.8 L75.3,182 L75.1,182.2 L75.1,188.3 L73,188.3 C71.5,188.3 70.2,189 69,190.4 C57.1,195.8 51.2,203.7 51.2,213.8 C51.2,223.6 54.7,232.1 61.7,239.3 C69.4,246.1 78.1,250.6 87.7,252.9 L88.5,252.7 C89.1,253.2 90,253.5 91.2,253.7 C91.2,253.5 91.5,253.2 92.2,253.1 C92.5,253.9 93.3,254.4 94.5,254.4 L95.8,254.2 C96.1,254.6 97.2,255 99.1,255.2 L99.3,255 L99.1,254 L99.1,253.8 C99.9,253.7 100.5,253.4 101,253 L101.6,253 C102.8,253.8 104.6,254.5 106.8,255.1 L107,255.1 L107,254.5 C106.2,254.5 105.7,254.2 105.5,253.5 L105.9,251.8 L105.9,251.6 L105.3,251.8 L105.1,251.8 L104.9,251.6 L105.1,250.6 L105.5,250.6 L105.5,251 L105.7,251 L106.7,250.8 L106.7,250.4 L106.5,250.2 L107.3,250.2 L108.3,250.4 C108.3,250 108.6,249.7 109.1,249.6 L109.1,249.8 L109.3,250 L109.3,250.2 L109,250.2 L109,250.6 C109.6,250.6 110.4,251.2 111.5,252.5 L111.9,252.5 L112.7,251.9 L112.9,251.9 C112.9,252.6 113,252.9 113.3,252.9 L113.5,252.9 L113.9,252.5 L113.3,251.7 C113.6,251 114.3,250.7 115.4,250.7 L115.6,250.7 L116.2,251.3 L117.2,251.1 L117.4,251.1 L117.6,251.7 C117.3,251.7 117.2,252.1 117.2,252.7 C117.2,253.3 118,253.5 119.5,253.5 L119.7,253.5 L120.7,253.3 L120.9,253.5 L121.3,253.5 C121.6,252.7 121.9,252.2 122.1,252.2 L122.9,252.2 L122.9,252.6 L121.9,253.9 L121.9,254.1 L124,254.9 L124.2,254.9 L125,254.1 L125,253.9 L124.8,253.7 C126,253.7 127.2,253.4 128.6,252.9 L128.8,252.9 L129.8,254.8 C132.3,254.9 133.7,255.2 134,255.4 C134.4,255.4 134.6,255.3 134.6,255 L135,255.4 C137.4,255.2 138.6,254.9 138.6,254.6 L138.6,254.2 C138.9,253.1 138.4,252.5 137.4,252.1 Z" id="Path" fill="#FFFFFF"></path>
        </g>
    </g>
</svg>